<svg width="32" height="32" viewBox="0 0 32 32" xmlns="http://www.w3.org/2000/svg">
  <defs>
    <linearGradient id="logoGradient" x1="0%" y1="0%" x2="100%" y2="100%">
      <stop offset="0%" style="stop-color:#8B5CF6;stop-opacity:1" />
      <stop offset="100%" style="stop-color:#06B6D4;stop-opacity:1" />
    </linearGradient>
  </defs>
  
  <!-- Background Circle -->
  <circle cx="16" cy="16" r="15" fill="url(#logoGradient)" opacity="0.1"/>
  
  <!-- Main geometric shape -->
  <polygon points="6,9 12,3 18,9 15,15 9,15" fill="url(#logoGradient)" opacity="0.9"/>
  
  <!-- Technology bars -->
  <rect x="8" y="19" width="2" height="8" fill="#EC4899" opacity="0.8"/>
  <rect x="11" y="19" width="2" height="8" fill="#EC4899" opacity="0.8"/>
  <rect x="14" y="19" width="2" height="8" fill="#EC4899" opacity="0.8"/>
  <rect x="17" y="19" width="2" height="8" fill="#EC4899" opacity="0.8"/>
  <rect x="20" y="19" width="2" height="8" fill="#EC4899" opacity="0.8"/>
  
  <!-- G Letter -->
  <path d="M 5 16 Q 5 8 12 8 Q 19 8 19 16 Q 19 24 12 24 Q 8 24 8 20 L 11 20 Q 11 22 12 22 Q 13 22 13 16 Q 13 10 12 10 Q 11 10 11 12 L 8 12" 
        fill="white" 
        stroke="url(#logoGradient)" 
        stroke-width="0.8"/>
  
  <!-- F Letter -->
  <rect x="20" y="8" width="1.5" height="16" fill="white"/>
  <rect x="20" y="8" width="8" height="1.5" fill="white"/>
  <rect x="20" y="14" width="6" height="1.5" fill="white"/>
</svg>
