<svg width="120" height="120" viewBox="0 0 120 120" xmlns="http://www.w3.org/2000/svg">
  <defs>
    <linearGradient id="logoGradient" x1="0%" y1="0%" x2="100%" y2="100%">
      <stop offset="0%" style="stop-color:#8B5CF6;stop-opacity:1" />
      <stop offset="100%" style="stop-color:#06B6D4;stop-opacity:1" />
    </linearGradient>
    <linearGradient id="accentGradient" x1="0%" y1="0%" x2="100%" y2="0%">
      <stop offset="0%" style="stop-color:#8B5CF6;stop-opacity:1" />
      <stop offset="100%" style="stop-color:#06B6D4;stop-opacity:1" />
    </linearGradient>
  </defs>
  
  <!-- Professional geometric background -->
  <rect x="20" y="20" width="80" height="80" rx="16" ry="16" 
        fill="none" 
        stroke="url(#logoGradient)" 
        stroke-width="2"/>
  
  <!-- Minimalist "G" letterform -->
  <path d="M 45 35 L 45 85 L 75 85 L 75 75 L 55 75 L 55 65 L 70 65 L 70 55 L 55 55 L 55 45 L 75 45 L 75 35 Z" 
        fill="url(#logoGradient)" 
        opacity="0.9"/>
  
  <!-- Minimalist "F" letterform -->
  <path d="M 45 35 L 45 85 L 50 85 L 50 75 L 65 75 L 65 65 L 50 65 L 50 55 L 70 55 L 70 45 L 50 45 L 50 35 Z" 
        fill="url(#logoGradient)" 
        opacity="0.9"/>
  
  <!-- Subtle accent line -->
  <line x1="25" y1="25" x2="95" y2="25" 
        stroke="url(#accentGradient)" 
        stroke-width="1" 
        opacity="0.6"/>
  
  <!-- Professional dot accent -->
  <circle cx="60" cy="95" r="2" 
          fill="url(#accentGradient)" 
          opacity="0.8"/>
</svg>
